HIERARCHY
ROOT root
{
	OFFSET 0.000000 0.000000 0.000000
	CHANNELS 6 Xposition Yposition Zposition Zrotation Yrotation Xrotation
	JOINT lhip
	{
		OFFSET 0.058581 -0.082280 -0.017664
		CHANNELS 3 Zrotation Yrotation Xrotation
		JOINT lknee
		{
			OFFSET 0.043451 -0.386469 0.008037
			CHANNELS 3 Zrotation Yrotation Xrotation
			JOINT lankle
			{
				OFFSET -0.014790 -0.426874 -0.037428
				CHANNELS 3 Zrotation Yrotation Xrotation
				JOINT ltoe
				{
					OFFSET 0.041054 -0.060286 0.122042
					CHANNELS 3 Zrotation Yrotation Xrotation
					End Site
					{
						OFFSET 0.000000 0.000000 0.000000
					}
				}
			}
		}
	}
	JOINT rhip
	{
		OFFSET -0.060310 -0.090513 -0.013543
		CHANNELS 3 Zrotation Yrotation Xrotation
		JOINT rknee
		{
			OFFSET -0.043257 -0.383688 -0.004843
			CHANNELS 3 Zrotation Yrotation Xrotation
			JOINT rankle
			{
				OFFSET 0.019056 -0.420046 -0.034562
				CHANNELS 3 Zrotation Yrotation Xrotation
				JOINT rtoe
				{
					OFFSET -0.034840 -0.062106 0.130323
					CHANNELS 3 Zrotation Yrotation Xrotation
					End Site
					{
						OFFSET 0.000000 0.000000 0.000000
					}
				}
			}
		}
	}
	JOINT lowerback
	{
		OFFSET 0.004439 0.124404 -0.038385
		CHANNELS 3 Zrotation Yrotation Xrotation
		JOINT upperback
		{
			OFFSET 0.004488 0.137956 0.026820
			CHANNELS 3 Zrotation Yrotation Xrotation
			JOINT chest
			{
				OFFSET -0.002265 0.056032 0.002855
				CHANNELS 3 Zrotation Yrotation Xrotation
				JOINT lowerneck
				{
					OFFSET -0.013390 0.211636 -0.033468
					CHANNELS 3 Zrotation Yrotation Xrotation
					JOINT upperneck
					{
						OFFSET 0.010113 0.088937 0.050410
						CHANNELS 3 Zrotation Yrotation Xrotation
						End Site
						{
							OFFSET 0.000000 0.000000 0.000000
						}
					}
				}
				JOINT lclavicle
				{
					OFFSET 0.071702 0.114000 -0.018898
					CHANNELS 3 Zrotation Yrotation Xrotation
					JOINT lshoulder
					{
						OFFSET 0.122921 0.045205 -0.019046
						CHANNELS 3 Zrotation Yrotation Xrotation
						JOINT lelbow
						{
							OFFSET 0.255332 -0.015649 -0.022946
							CHANNELS 3 Zrotation Yrotation Xrotation
							JOINT lwrist
							{
								OFFSET 0.265709 0.012698 -0.007375
								CHANNELS 3 Zrotation Yrotation Xrotation
								End Site
								{
									OFFSET 0.000000 0.000000 0.000000
								}
							}
						}
					}
				}
				JOINT rclavicle
				{
					OFFSET -0.082954 0.112472 -0.023707
					CHANNELS 3 Zrotation Yrotation Xrotation
					JOINT rshoulder
					{
						OFFSET -0.113228 0.046853 -0.008472
						CHANNELS 3 Zrotation Yrotation Xrotation
						JOINT relbow
						{
							OFFSET -0.260127 -0.014369 -0.031269
							CHANNELS 3 Zrotation Yrotation Xrotation
							JOINT rwrist
							{
								OFFSET -0.269108 0.006794 -0.006027
								CHANNELS 3 Zrotation Yrotation Xrotation
								End Site
								{
									OFFSET 0.000000 0.000000 0.000000
								}
							}
						}
					}
				}
			}
		}
	}
}
MOTION
Frames: 9
Frame Time: 0.033333
0.341162 0.178439 0.986163 85.492058 -0.289198 91.502994 6.865475 5.758546 4.717045 -3.972100 1.781413 -5.352247 -0.326759 9.246022 -3.091072 0.000000 -0.000000 0.000000 -8.804175 -2.192215 -2.096044 2.508117 -1.020771 1.066426 5.936733 -2.949186 -4.657471 0.000000 -0.000000 0.000000 -4.230746 1.949889 -9.108392 2.550226 -2.043405 13.683584 -0.134695 0.544642 -4.598638 4.149815 3.858395 8.285357 4.906739 -4.040040 2.758540 -25.381294 -2.856959 0.616530 -56.350908 -8.600347 18.699809 -0.450996 -17.333071 12.027010 -6.164132 -16.736177 12.174768 29.550770 3.983572 7.220641 53.810660 6.384406 15.279538 -7.174525 24.134172 1.683533 -0.974672 12.289703 4.246848 
0.341121 0.178413 0.986142 85.497891 -0.284863 91.481785 6.874785 5.750704 4.741375 -3.973662 1.784109 -5.360748 -0.348056 9.247023 -3.087429 0.000000 -0.000000 0.000000 -8.788265 -2.181496 -2.074900 2.493628 -1.015273 1.064733 5.944852 -2.968692 -4.660642 0.000000 -0.000000 0.000000 -4.197146 1.929554 -9.041005 2.501169 -2.004528 13.573875 -0.115547 0.581791 -4.535954 4.149569 3.855792 8.160235 4.905394 -4.038531 2.909606 -25.318486 -2.921092 0.645271 -56.416780 -8.587092 18.631039 -0.418591 -17.344434 12.026604 -6.157478 -16.750215 12.174236 29.449649 4.072857 7.312311 53.931196 6.365658 15.291856 -7.261952 24.111395 1.603433 -0.986466 12.343733 4.184096 
0.341072 0.178381 0.986139 85.508286 -0.280957 91.473891 6.881727 5.750184 4.740469 -3.969564 1.778629 -5.352573 -0.358577 9.241306 -3.089316 0.000000 -0.000000 0.000000 -8.782185 -2.184670 -2.064801 2.496196 -1.014724 1.058436 5.946495 -2.975033 -4.661849 0.000000 -0.000000 0.000000 -4.183454 1.926086 -9.024291 2.489241 -1.996337 13.545202 -0.111098 0.595716 -4.520105 4.141341 3.859132 8.122802 4.903456 -4.034188 2.933790 -25.304299 -2.939857 0.643045 -56.430147 -8.587058 18.610381 -0.406366 -17.352341 12.011518 -6.153049 -16.744893 12.165363 29.421251 4.092145 7.320629 53.953150 6.358818 15.288975 -7.285820 24.116634 1.578988 -0.983132 12.349454 4.175452 
0.340936 0.178281 0.986107 85.518392 -0.279027 91.456051 6.883042 5.741126 4.767217 -3.959177 1.759281 -5.378151 -0.390877 9.246398 -3.089684 0.000000 -0.000000 0.000000 -8.774893 -2.180486 -2.037919 2.489463 -0.990656 1.046236 5.972417 -3.003479 -4.694087 0.000000 -0.000000 0.000000 -4.127772 1.885689 -9.019155 2.412057 -1.963101 13.453451 -0.110574 0.642318 -4.383934 4.154604 3.915542 7.949619 4.870760 -3.960185 3.087136 -25.206479 -2.995712 0.599254 -56.528655 -8.606533 18.578556 -0.338148 -17.347772 11.988029 -6.210873 -16.765528 12.116744 29.302632 4.200883 7.365064 54.094508 6.391052 15.310494 -7.384156 24.130042 1.443278 -0.931732 12.395143 4.030838 
0.340894 0.178264 0.986095 85.527271 -0.282627 91.448189 6.873301 5.728009 4.759518 -3.950524 1.771179 -5.354277 -0.387865 9.249534 -3.100614 0.000000 -0.000000 0.000000 -8.772962 -2.165481 -2.030789 2.481548 -0.997210 1.048145 5.967859 -3.019679 -4.694350 0.000000 -0.000000 0.000000 -4.121342 1.880219 -9.006795 2.396206 -1.956314 13.428772 -0.116347 0.628946 -4.365034 4.170931 3.909439 7.882798 4.849427 -3.963749 3.161823 -25.184344 -2.996569 0.599808 -56.555463 -8.616993 18.574289 -0.310084 -17.336373 11.996092 -6.207953 -16.788417 12.092422 29.297692 4.214730 7.395075 54.121012 6.429292 15.319848 -7.412863 24.134898 1.433078 -0.979059 12.431805 4.013579 
0.340855 0.178157 0.986080 85.525629 -0.272058 91.458599 6.894360 5.733908 4.754704 -3.959639 1.783708 -5.362422 -0.416273 9.248588 -3.100584 0.000000 -0.000000 0.000000 -8.748534 -2.166023 -2.043718 2.470265 -1.000358 1.048617 5.961881 -3.013928 -4.672244 0.000000 -0.000000 0.000000 -4.108870 1.887548 -9.022255 2.395256 -1.939982 13.420804 -0.123821 0.619369 -4.371183 4.164736 3.891748 7.816467 4.825320 -3.993317 3.224435 -25.165550 -2.999893 0.595299 -56.582156 -8.612649 18.599392 -0.279737 -17.349768 12.005886 -6.077189 -16.791456 12.071625 29.287811 4.208154 7.404231 54.144082 6.449629 15.348671 -7.426172 24.171144 1.460249 -1.054485 12.433785 3.968175 
0.340736 0.178059 0.986072 85.519665 -0.273275 91.463042 6.905004 5.734632 4.747893 -3.974064 1.786624 -5.361661 -0.394744 9.217046 -3.093743 0.000000 -0.000000 0.000000 -8.730188 -2.190881 -2.080158 2.447048 -0.997911 1.091240 5.960917 -2.980953 -4.688318 0.000000 -0.000000 0.000000 -4.112077 1.939803 -9.033844 2.384116 -1.940562 13.437708 -0.138912 0.584119 -4.418108 4.179386 3.870203 7.807826 4.835725 -4.002537 3.252490 -25.114125 -3.011201 0.623015 -56.607901 -8.622584 18.581269 -0.287707 -17.349900 12.007640 -5.966554 -16.800474 12.067011 29.262279 4.214924 7.418329 54.202703 6.493232 15.346018 -7.405303 24.142980 1.463992 -1.137541 12.451215 3.989638 
0.340677 0.177994 0.986073 85.533978 -0.269858 91.465457 6.905682 5.707996 4.724832 -3.956358 1.786303 -5.329469 -0.371960 9.215308 -3.119128 0.000000 -0.000000 0.000000 -8.740203 -2.179319 -2.056369 2.480351 -0.974535 1.053044 5.958266 -3.002171 -4.685561 0.000000 -0.000000 0.000000 -4.124483 1.947613 -9.025722 2.386593 -1.935721 13.415314 -0.131544 0.589786 -4.423759 4.199461 3.907924 7.788228 4.831977 -4.002144 3.295027 -25.119726 -2.994681 0.627901 -56.595371 -8.645412 18.546531 -0.336800 -17.319159 12.051327 -6.066326 -16.757115 12.075976 29.276138 4.202006 7.432006 54.215054 6.498227 15.345376 -7.457389 24.170143 1.458305 -1.079135 12.400079 4.015230 
0.340691 0.177949 0.986069 85.544567 -0.263216 91.463844 6.914484 5.710951 4.723375 -3.951758 1.788992 -5.321943 -0.378287 9.214430 -3.113153 0.000000 -0.000000 0.000000 -8.736191 -2.166693 -2.037143 2.493312 -0.991286 1.031999 5.960343 -3.022234 -4.689637 0.000000 -0.000000 0.000000 -4.116453 1.935631 -9.028326 2.386095 -1.929372 13.407877 -0.133467 0.594802 -4.420486 4.205765 3.911155 7.791735 4.827334 -4.005409 3.291481 -25.113219 -2.978188 0.627561 -56.609750 -8.648975 18.537133 -0.340086 -17.318247 12.082080 -6.121566 -16.738898 12.091188 29.260773 4.202715 7.420401 54.244312 6.495258 15.354088 -7.464316 24.171723 1.485235 -1.051873 12.412370 3.989802 
